<?xml version="1.0" standalone="no"?>
<!DOCTYPE svg PUBLIC "-//W3C//DTD SVG 1.1//EN" "http://www.w3.org/Graphics/SVG/1.1/DTD/svg11.dtd" >
<svg xmlns="http://www.w3.org/2000/svg">
<metadata>Generated by IcoMoon</metadata>
<defs>
<font id="munkey" horiz-adv-x="1024">
<font-face units-per-em="1024" ascent="960" descent="-64" />
<missing-glyph horiz-adv-x="1024" />
<glyph unicode="&#x20;" d="" horiz-adv-x="512" />
<glyph unicode="&#xe600;" d="M504.686 789.943c-10.971 0-18.286-7.314-18.286-18.286v-669.257c-51.2 21.943-149.943 131.657-212.114 208.457-7.314 7.314-18.286 10.971-25.6 3.657s-10.971-18.286-3.657-25.6c29.257-36.571 182.857-226.743 259.657-226.743 0 0 0 0 0 0 73.143 0 230.4 186.514 259.657 226.743 7.314 7.314 3.657 18.286-3.657 25.6s-18.286 3.657-25.6-3.657c-62.171-76.8-160.914-179.2-212.114-204.8v665.6c-3.657 10.971-10.971 18.286-18.286 18.286z" />
<glyph unicode="&#xe601;" d="M387.657 658.286c7.314 7.314 7.314 18.286 3.657 25.6-7.314 7.314-18.286 7.314-25.6 3.657-36.571-29.257-226.743-186.514-226.743-259.657s190.171-230.4 226.743-259.657c3.657-3.657 7.314-3.657 10.971-3.657s10.971 3.657 14.629 7.314c7.314 7.314 3.657 18.286-3.657 25.6-76.8 62.171-182.857 160.914-208.457 212.114h669.257c10.971 0 18.286 7.314 18.286 18.286s-7.314 18.286-18.286 18.286h-669.257c25.6 51.2 131.657 149.943 208.457 212.114z" />
<glyph unicode="&#xe602;" d="M138.971 427.886c0-10.971 7.314-18.286 18.286-18.286h669.257c-25.6-51.2-128-149.943-208.457-212.114-7.314-7.314-7.314-18.286-3.657-25.6 3.657-3.657 7.314-7.314 14.629-7.314 3.657 0 7.314 0 10.971 3.657 36.571 29.257 226.743 186.514 226.743 259.657s-190.171 230.4-226.743 259.657c-7.314 7.314-18.286 3.657-25.6-3.657s-3.657-18.286 3.657-25.6c76.8-62.171 182.857-160.914 208.457-212.114h-669.257c-10.971 0-18.286-10.971-18.286-18.286z" />
<glyph unicode="&#xe603;" d="M504.686 62.171c10.971 0 18.286 7.314 18.286 18.286v669.257c51.2-25.6 149.943-128 212.114-208.457 7.314-7.314 18.286-7.314 25.6-3.657 7.314 7.314 7.314 18.286 3.657 25.6-29.257 36.571-186.514 226.743-259.657 226.743s-230.4-190.171-259.657-226.743c-7.314-7.314-3.657-18.286 3.657-25.6 3.657-3.657 7.314-3.657 10.971-3.657s10.971 3.657 14.629 7.314c62.171 76.8 160.914 182.857 212.114 208.457v-669.257c-3.657-10.971 7.314-18.286 18.286-18.286z" />
<glyph unicode="&#xe604;" d="M899.657 182.857h-18.286c-58.514 0-73.143 91.429-95.086 201.143-32.914 164.571-73.143 369.371-281.6 369.371-212.114 0-256-208.457-288.914-376.686-21.943-102.4-36.571-190.171-87.771-190.171h-14.629c-10.971 0-18.286-7.314-18.286-18.286s10.971-21.943 18.286-21.943h256c0-10.971-3.657-18.286-3.657-29.257 0-76.8 62.171-138.971 138.971-138.971s138.971 58.514 138.971 135.314c0 10.971 0 18.286-3.657 29.257h256c10.971 0 18.286 7.314 18.286 18.286s-3.657 21.943-14.629 21.943zM607.086 117.028c0-54.857-43.886-98.743-102.4-98.743-54.857 0-102.4 43.886-102.4 102.4 0 10.971 0 21.943 3.657 29.257h197.486c3.657-10.971 3.657-21.943 3.657-32.914zM618.057 182.857h-420.571c29.257 40.229 40.229 109.714 58.514 182.857 32.914 164.571 69.486 347.429 252.343 347.429 179.2 0 212.114-179.2 245.029-340.114 14.629-80.457 29.257-153.6 58.514-193.829h-193.829zM548.571 841.143c10.971 0 18.286 7.314 18.286 18.286s-7.314 18.286-18.286 18.286h-73.143c-10.971 0-18.286-7.314-18.286-18.286s7.314-18.286 18.286-18.286h73.143z" />
<glyph unicode="&#xe605;" d="M438.857 566.857c-95.086 43.886-201.143 51.2-299.886 18.286-10.971-3.657-14.629-14.629-10.971-21.943s14.629-14.629 21.943-10.971c87.771 29.257 186.514 21.943 274.286-18.286 3.657 0 3.657 0 7.314 0 7.314 0 14.629 3.657 18.286 10.971s0 18.286-10.971 21.943zM438.857 427.886c-95.086 43.886-201.143 51.2-299.886 18.286-10.971-3.657-14.629-14.629-10.971-21.943 3.657-10.971 14.629-14.629 21.943-10.971 87.771 29.257 186.514 21.943 274.286-18.286 3.657 0 3.657 0 7.314 0 7.314 0 14.629 3.657 18.286 10.971s0 18.286-10.971 21.943zM438.857 288.914c-95.086 43.886-201.143 51.2-299.886 18.286-10.971-3.657-14.629-14.629-10.971-21.943 3.657-10.971 14.629-14.629 21.943-10.971 87.771 29.257 186.514 21.943 274.286-18.286 3.657 0 3.657 0 7.314 0 7.314 0 14.629 3.657 18.286 10.971s0 18.286-10.971 21.943zM965.486 713.143c-146.286 43.886-307.2 36.571-453.486-29.257-146.286 62.171-307.2 73.143-453.486 29.257-7.314-3.657-14.629-10.971-14.629-18.286v-563.2c0-7.314 3.657-10.971 7.314-14.629s10.971-3.657 14.629-3.657c138.971 43.886 296.229 32.914 435.2-29.257 3.657 0 3.657 0 7.314 0s3.657 0 7.314 0c138.971 62.171 296.229 73.143 435.2 29.257 3.657 0 10.971 0 14.629 3.657s7.314 7.314 7.314 14.629v563.2c7.314 7.314 0 14.629-7.314 18.286zM80.457 157.257v522.971c131.657 36.571 281.6 29.257 413.257-29.257v-522.971c-80.457 32.914-160.914 47.543-248.686 47.543-54.857 0-109.714-7.314-164.571-18.286zM943.543 157.257c-135.314 36.571-277.943 25.6-413.257-25.6v522.971c131.657 54.857 277.943 65.829 413.257 29.257v-526.629zM585.143 566.857c-10.971-3.657-14.629-14.629-10.971-25.6 3.657-7.314 10.971-10.971 18.286-10.971 3.657 0 3.657 0 7.314 0 87.771 40.229 186.514 47.543 274.286 18.286 10.971-3.657 18.286 3.657 21.943 10.971s0 25.6-10.971 25.6c-98.743 32.914-204.8 25.6-299.886-18.286zM885.029 449.828c-98.743 29.257-204.8 21.943-299.886-18.286-10.971-3.657-14.629-14.629-10.971-25.6 3.657-7.314 10.971-10.971 18.286-10.971 3.657 0 3.657 0 7.314 0 87.771 40.229 186.514 43.886 274.286 18.286 10.971-3.657 18.286 3.657 21.943 10.971s0 21.943-10.971 25.6zM885.029 310.857c-98.743 29.257-204.8 21.943-299.886-18.286-10.971-3.657-14.629-14.629-10.971-25.6 3.657-7.314 10.971-10.971 18.286-10.971 3.657 0 3.657 0 7.314 0 87.771 40.229 186.514 43.886 274.286 18.286 10.971-3.657 18.286 3.657 21.943 10.971s0 21.943-10.971 25.6z" />
<glyph unicode="&#xe606;" d="M947.2 863.086c-58.514 0-446.171-259.657-526.629-453.486-7.314-21.943-10.971-40.229-14.629-54.857-3.657 0-10.971 0-14.629 0-62.171 0-91.429-47.543-117.029-87.771s-54.857-80.457-106.057-80.457c-18.286 0-36.571 3.657-62.171 14.629-7.314 3.657-14.629 0-18.286-3.657s-7.314-10.971-3.657-18.286c32.914-106.057 153.6-153.6 256-153.6 109.714 0 223.086 54.857 223.086 175.543 0 14.629-3.657 29.257-7.314 43.886 157.257 58.514 343.771 402.286 394.971 526.629 25.6 58.514 21.943 76.8 14.629 87.771-3.657 0-7.314 3.657-18.286 3.657zM340.114 58.514c-76.8 0-164.571 29.257-204.8 95.086 10.971-3.657 21.943-3.657 32.914-3.657 73.143 0 106.057 51.2 135.314 98.743 29.257 43.886 51.2 76.8 98.743 73.143 3.657-14.629 14.629-25.6 21.943-40.229 3.657-7.314 7.314-10.971 14.629-14.629 25.6-25.6 51.2-40.229 84.114-40.229 0-7.314 3.657-14.629 3.657-21.943 0-102.4-95.086-146.286-186.514-146.286zM647.314 354.743c-54.857-54.857-102.4-84.114-135.314-84.114-18.286 0-32.914 7.314-43.886 18.286-25.6 25.6-29.257 58.514-10.971 98.743 62.171 168.229 394.971 394.971 479.086 431.543-25.6-73.143-157.257-325.486-288.914-464.457z" />
<glyph unicode="&#xe607;" d="M969.143 365.714c-32.914 14.629-124.343 10.971-197.486 3.657 0 3.657 0 3.657 0 7.314-7.314 40.229-14.629 80.457-32.914 113.371 0 0 3.657 3.657 3.657 3.657 25.6 40.229 69.486 62.171 135.314 69.486 10.971 0 18.286 10.971 18.286 18.286 0 10.971-10.971 18.286-18.286 18.286-84.114-7.314-128-40.229-153.6-73.143-14.629 21.943-32.914 43.886-51.2 62.171 3.657 10.971 3.657 21.943 3.657 32.914 0 14.629-3.657 29.257-3.657 43.886 29.257 18.286 47.543 51.2 47.543 87.771 0 58.514-47.543 106.057-106.057 106.057-36.571 0-69.486-18.286-87.771-47.543-14.629 3.657-29.257 3.657-43.886 3.657s-32.914-7.314-43.886-7.314c-18.286 29.257-51.2 47.543-87.771 47.543-58.514 0-106.057-47.543-106.057-106.057 0-36.571 18.286-69.486 47.543-87.771-3.657-14.629-7.314-29.257-7.314-43.886 0-10.971 0-21.943 3.657-32.914-18.286-18.286-36.571-36.571-51.2-62.171-25.6 32.914-69.486 65.829-153.6 73.143-10.971 0-18.286-7.314-18.286-18.286s7.314-18.286 18.286-18.286c65.829-3.657 109.714-29.257 135.314-69.486 0 0 3.657-3.657 3.657-3.657-14.629-32.914-25.6-73.143-32.914-113.371 0-3.657 0-3.657 0-7.314-73.143 7.314-164.571 10.971-197.486-3.657-10.971-3.657-14.629-14.629-10.971-25.6 3.657-7.314 10.971-10.971 18.286-10.971 3.657 0 3.657 0 7.314 0 18.286 7.314 87.771 7.314 179.2 0 0-40.229 7.314-73.143 14.629-106.057-25.6-29.257-73.143-80.457-146.286-76.8-10.971 0-18.286-7.314-18.286-18.286s7.314-18.286 18.286-18.286c3.657 0 7.314 0 10.971 0 69.486 0 120.686 40.229 153.6 73.143 47.543-102.4 142.629-168.229 263.314-168.229s219.429 65.829 263.314 168.229c29.257-32.914 84.114-73.143 153.6-73.143 3.657 0 7.314 0 10.971 0 10.971 0 18.286 10.971 18.286 18.286 0 10.971-7.314 18.286-18.286 18.286-73.143-3.657-120.686 47.543-146.286 76.8 10.971 32.914 14.629 69.486 14.629 106.057 91.429 7.314 160.914 7.314 182.857 0 3.657 0 3.657 0 7.314 0 7.314 0 14.629 3.657 18.286 10.971-3.657 14.629-7.314 25.6-18.286 29.257zM610.743 819.2c36.571 0 69.486-32.914 69.486-69.486 0-21.943-10.971-40.229-25.6-51.2-18.286 43.886-54.857 76.8-98.743 98.743 14.629 10.971 36.571 21.943 54.857 21.943zM277.943 749.714c0 36.571 32.914 69.486 69.486 69.486 21.943 0 40.229-10.971 51.2-25.6-40.229-18.286-76.8-54.857-95.086-95.086-14.629 10.971-25.6 29.257-25.6 51.2zM321.829 610.743c0 3.657 0 3.657 0 7.314 0 14.629 3.657 32.914 7.314 47.543 0 0 0 0 0 0 14.629 51.2 54.857 87.771 102.4 102.4 0 0 0 0 0 0 14.629 3.657 29.257 7.314 47.543 7.314s32.914-3.657 47.543-7.314c0 0 0 0 0 0 51.2-14.629 87.771-54.857 102.4-102.4 0 0 0 0 0 0 3.657-14.629 7.314-29.257 7.314-47.543 0-3.657 0-3.657 0-7.314 0 0 0 0 0 0-10.971 7.314-18.286 10.971-29.257 14.629-3.657 3.657-7.314 3.657-10.971 3.657-7.314 3.657-14.629 7.314-25.6 7.314-3.657 0-10.971 3.657-14.629 3.657-10.971 3.657-18.286 3.657-29.257 7.314-3.657 0-7.314 0-10.971 0-10.971 0-25.6 3.657-36.571 3.657-14.629 0-25.6 0-36.571-3.657-3.657 0-7.314 0-10.971 0-10.971 0-18.286-3.657-29.257-7.314-3.657 0-10.971-3.657-14.629-3.657-7.314-3.657-14.629-3.657-21.943-7.314-3.657 0-7.314-3.657-10.971-7.314-10.971 0-21.943-3.657-32.914-10.971 3.657 0 0 0 0 0zM479.086 54.857c-179.2 0-259.657 142.629-259.657 281.6 0 10.971 0 21.943 3.657 36.571 10.971 84.114 43.886 149.943 95.086 193.829 0 0 0 0 0 0 10.971 7.314 21.943 14.629 32.914 21.943 0 0 0 0 0 0 10.971 7.314 21.943 10.971 36.571 14.629 3.657 0 3.657 0 7.314 3.657 10.971 3.657 25.6 7.314 36.571 7.314 3.657 0 3.657 0 7.314 0 14.629 3.657 25.6 3.657 40.229 3.657s29.257 0 40.229-3.657c3.657 0 3.657 0 7.314 0 10.971-3.657 25.6-3.657 36.571-7.314 3.657 0 3.657 0 7.314-3.657 10.971-3.657 25.6-10.971 36.571-14.629 0 0 0 0 0 0 10.971-7.314 21.943-14.629 32.914-21.943 0 0 0 0 0 0 51.2-43.886 84.114-106.057 95.086-193.829 0-10.971 3.657-21.943 3.657-36.571 0-138.971-80.457-281.6-259.657-281.6z" />
<glyph unicode="&#xe608;" d="M775.314 585.143h-548.571c-7.314 0-14.629-3.657-18.286-10.971s0-14.629 3.657-18.286l274.286-274.286c3.657-3.657 7.314-3.657 14.629-3.657s10.971 0 14.629 3.657l274.286 274.286c3.657 3.657 7.314 14.629 3.657 18.286s-7.314 10.971-18.286 10.971zM504.686 318.171l-230.4 230.4h457.143l-226.743-230.4z" />
<glyph unicode="&#xe609;" d="M647.314 749.714c-7.314 3.657-14.629 0-18.286-3.657l-274.286-274.286c-7.314-7.314-7.314-18.286 0-25.6l274.286-274.286c3.657-3.657 7.314-3.657 14.629-3.657 3.657 0 3.657 0 7.314 0 7.314 3.657 10.971 10.971 10.971 18.286v544.914c-3.657 7.314-7.314 14.629-14.629 18.286zM621.714 226.743l-230.4 230.4 230.4 230.4v-460.8z" />
<glyph unicode="&#xe60a;" d="M398.629 746.057c-3.657 3.657-14.629 7.314-18.286 3.657-10.971-3.657-14.629-10.971-14.629-18.286v-548.571c0-7.314 3.657-14.629 10.971-18.286 3.657 0 3.657 0 7.314 0s10.971 3.657 14.629 3.657l274.286 274.286c7.314 7.314 7.314 18.286 0 25.6l-274.286 277.943zM402.286 226.743v460.8l230.4-230.4-230.4-230.4z" />
<glyph unicode="&#xe60b;" d="M515.657 599.771c-7.314 7.314-18.286 7.314-25.6 0l-274.286-274.286c-3.657-3.657-7.314-14.629-3.657-18.286s7.314-14.629 14.629-14.629h548.571c0 0 0 0 0 0 10.971 0 18.286 7.314 18.286 18.286 0 7.314-3.657 10.971-7.314 14.629l-270.629 274.286zM274.286 329.143l230.4 230.4 226.743-230.4h-457.143z" />
<glyph unicode="&#xe60c;" d="M855.771 716.8l-431.543-497.371-201.143 201.143c-7.314 7.314-18.286 7.314-25.6 0s-7.314-18.286 0-25.6l212.114-212.114c3.657-3.657 7.314-3.657 14.629-3.657 0 0 0 0 0 0 3.657 0 10.971 3.657 14.629 7.314l442.514 504.686c7.314 7.314 7.314 18.286 0 25.6s-18.286 7.314-25.6 0z" />
<glyph unicode="&#xe60d;" d="M713.143 541.257c-7.314 3.657-18.286 3.657-25.6-7.314-29.257-47.543-124.343-171.886-190.171-171.886s-160.914 124.343-190.171 171.886c0 10.971-14.629 14.629-21.943 7.314-7.314-3.657-10.971-18.286-7.314-25.6 10.971-18.286 120.686-190.171 219.429-190.171s208.457 171.886 219.429 190.171c10.971 10.971 7.314 21.943-3.657 25.6zM501.029 892.343c-241.371 0-438.857-197.486-438.857-438.857s197.486-438.857 438.857-438.857 438.857 197.486 438.857 438.857-197.486 438.857-438.857 438.857zM501.029 54.857c-219.429 0-402.286 179.2-402.286 402.286s179.2 402.286 402.286 402.286 402.286-179.2 402.286-402.286-182.857-402.286-402.286-402.286z" />
<glyph unicode="&#xe60e;" d="M581.486 643.657c7.314 3.657 10.971 18.286 7.314 25.6s-18.286 10.971-25.6 7.314c-18.286-10.971-190.171-120.686-190.171-219.429s171.886-208.457 190.171-219.429c3.657-3.657 7.314-3.657 10.971-3.657 7.314 0 10.971 3.657 14.629 7.314 3.657 7.314 3.657 18.286-7.314 25.6-47.543 29.257-171.886 124.343-171.886 190.171-3.657 65.829 124.343 157.257 171.886 186.514zM501.029 892.343c-241.371 0-438.857-197.486-438.857-438.857s197.486-438.857 438.857-438.857 438.857 197.486 438.857 438.857-197.486 438.857-438.857 438.857zM501.029 54.857c-219.429 0-402.286 179.2-402.286 402.286s179.2 402.286 402.286 402.286 402.286-179.2 402.286-402.286-182.857-402.286-402.286-402.286z" />
<glyph unicode="&#xe60f;" d="M438.857 676.571c-7.314 3.657-18.286 3.657-25.6-7.314-3.657-7.314-3.657-18.286 7.314-25.6 47.543-29.257 171.886-124.343 171.886-190.171s-124.343-160.914-171.886-190.171c-7.314-3.657-10.971-18.286-7.314-25.6s10.971-7.314 14.629-7.314c3.657 0 7.314 0 10.971 3.657 18.286 10.971 190.171 120.686 190.171 219.429 0 102.4-171.886 212.114-190.171 223.086zM501.029 892.343c-241.371 0-438.857-197.486-438.857-438.857s197.486-438.857 438.857-438.857 438.857 197.486 438.857 438.857-197.486 438.857-438.857 438.857zM501.029 54.857c-219.429 0-402.286 179.2-402.286 402.286s179.2 402.286 402.286 402.286 402.286-179.2 402.286-402.286-182.857-402.286-402.286-402.286z" />
<glyph unicode="&#xe610;" d="M501.029 585.143c-98.743 0-208.457-171.886-219.429-190.171-3.657-7.314-3.657-18.286 7.314-25.6 3.657-3.657 18.286-3.657 21.943 7.314 29.257 47.543 124.343 171.886 190.171 171.886s160.914-124.343 190.171-171.886c3.657-7.314 10.971-7.314 14.629-7.314s7.314 0 10.971 3.657 10.971 18.286 7.314 25.6c-14.629 14.629-124.343 186.514-223.086 186.514zM501.029 892.343c-241.371 0-438.857-197.486-438.857-438.857s197.486-438.857 438.857-438.857 438.857 197.486 438.857 438.857-197.486 438.857-438.857 438.857zM501.029 54.857c-219.429 0-402.286 179.2-402.286 402.286s179.2 402.286 402.286 402.286 402.286-179.2 402.286-402.286-182.857-402.286-402.286-402.286z" />
<glyph unicode="&#xe611;" d="M504.686 786.286c-190.171 0-347.429-157.257-347.429-347.429s157.257-347.429 347.429-347.429 347.429 157.257 347.429 347.429-157.257 347.429-347.429 347.429zM504.686 128c-171.886 0-310.857 138.971-310.857 310.857s138.971 310.857 310.857 310.857 310.857-138.971 310.857-310.857-142.629-310.857-310.857-310.857z" />
<glyph unicode="&#xe612;" d="M504.686 771.657c-201.143 0-362.057-160.914-362.057-362.057s160.914-362.057 362.057-362.057 362.057 160.914 362.057 362.057-164.571 362.057-362.057 362.057zM504.686 84.114c-179.2 0-325.486 146.286-325.486 325.486s146.286 325.486 325.486 325.486 325.486-146.286 325.486-325.486-146.286-325.486-325.486-325.486zM585.143 665.6c-10.971 3.657-18.286-3.657-21.943-10.971l-76.8-256-131.657 131.657c-7.314 7.314-18.286 7.314-25.6 0s-7.314-18.286 0-25.6l153.6-153.6c3.657-3.657 7.314-3.657 14.629-3.657 0 0 3.657 0 3.657 0 7.314 0 10.971 7.314 14.629 10.971l87.771 285.257c-3.657 7.314-7.314 18.286-18.286 21.943zM621.714 804.571c10.971 0 18.286 7.314 18.286 18.286s-7.314 18.286-18.286 18.286h-219.429c-10.971 0-18.286-7.314-18.286-18.286s7.314-18.286 18.286-18.286h219.429z" />
<glyph unicode="&#xe613;" d="M321.829 212.114c3.657-3.657 7.314-3.657 10.971-3.657s10.971 3.657 14.629 7.314c7.314 7.314 3.657 18.286-3.657 25.6l-248.686 197.486 259.657 201.143c3.657 3.657 7.314 18.286 0 25.6s-18.286 7.314-25.6 3.657l-277.943-215.771c-3.657-3.657-7.314-7.314-7.314-14.629s3.657-10.971 7.314-14.629l270.629-212.114zM683.886 669.257c-7.314 7.314-18.286 3.657-25.6-3.657s-3.657-18.286 3.657-25.6l252.343-197.486-259.657-201.143c-7.314-7.314-10.971-18.286-3.657-25.6 3.657-3.657 7.314-7.314 14.629-7.314 3.657 0 7.314 0 10.971 3.657l277.943 215.771c3.657 3.657 7.314 7.314 7.314 14.629s-3.657 10.971-7.314 14.629l-270.629 212.114zM585.143 694.857c-10.971 3.657-18.286-3.657-21.943-10.971l-142.629-475.429c-3.657-10.971 3.657-18.286 10.971-21.943 0 0 3.657 0 3.657 0 7.314 0 14.629 3.657 18.286 14.629l142.629 475.429c3.657 7.314 0 14.629-10.971 18.286z" />
<glyph unicode="&#xe614;" d="M874.057 822.857l-303.543-303.543c-7.314 36.571-7.314 113.371 0 182.857 0 10.971-7.314 18.286-14.629 21.943-10.971 0-18.286-7.314-21.943-14.629-3.657-43.886-18.286-197.486 18.286-230.4 18.286-18.286 69.486-25.6 120.686-25.6 43.886 0 91.429 3.657 113.371 7.314 10.971 0 18.286 10.971 14.629 21.943 0 10.971-10.971 18.286-21.943 14.629-69.486-7.314-146.286-7.314-182.857 0l303.543 303.543c7.314 7.314 7.314 18.286 0 25.6s-18.286 3.657-25.6-3.657zM424.229 142.628c0-10.971 7.314-18.286 14.629-21.943 0 0 0 0 3.657 0 10.971 0 18.286 7.314 18.286 14.629 3.657 43.886 18.286 197.486-18.286 230.4-36.571 36.571-186.514 21.943-230.4 18.286-10.971 0-18.286-10.971-14.629-21.943 0-10.971 10.971-18.286 21.943-14.629 69.486 7.314 146.286 7.314 182.857 0l-303.543-303.543c-7.314-7.314-7.314-18.286 0-25.6 3.657-3.657 7.314-3.657 14.629-3.657s10.971 0 14.629 3.657l303.543 303.543c3.657-32.914 3.657-113.371-7.314-179.2z" />
<glyph unicode="&#xe615;" d="M914.286 237.714v585.143c0 10.971-7.314 18.286-18.286 18.286h-585.143c-10.971 0-18.286-7.314-18.286-18.286v-164.571h-164.571c-10.971 0-18.286-7.314-18.286-18.286v-585.143c0-10.971 7.314-18.286 18.286-18.286h585.143c10.971 0 18.286 7.314 18.286 18.286v164.571h164.571c10.971 0 18.286 7.314 18.286 18.286zM694.857 73.143h-548.571v548.571h146.286v-384c0-10.971 7.314-18.286 18.286-18.286h384v-146.286zM877.714 256h-548.571v548.571h548.571v-548.571z" />
<glyph unicode="&#xe616;" d="M932.571 841.143h-841.143c-10.971 0-18.286-7.314-18.286-18.286v-548.571c0-10.971 7.314-18.286 18.286-18.286h263.314c-43.886-69.486-80.457-153.6-80.457-157.257-3.657-7.314 0-10.971 0-18.286 3.657-3.657 7.314-7.314 14.629-7.314h449.829c7.314 0 10.971 3.657 14.629 7.314s3.657 10.971 0 18.286c0 3.657-36.571 87.771-84.114 157.257h259.657c10.971 0 18.286 7.314 18.286 18.286v548.571c3.657 10.971-3.657 18.286-14.629 18.286zM109.714 804.571h804.571v-365.714h-804.571v365.714zM709.486 109.714h-391.314c14.629 32.914 47.543 98.743 80.457 146.286h230.4c36.571-47.543 65.829-113.371 80.457-146.286zM914.286 292.571h-804.571v109.714h804.571v-109.714z" />
<glyph unicode="&#xe617;" d="M98.743 760.686c120.686-3.657 219.429-40.229 288.914-117.029 109.714-117.029 117.029-296.229 117.029-354.743l-164.571 109.714c-10.971 7.314-21.943 3.657-25.6-3.657-7.314-7.314-3.657-18.286 3.657-25.6l193.829-128c0 0 0 0 0 0 3.657 0 7.314-3.657 7.314-3.657 3.657 0 3.657 0 7.314 3.657 0 0 0 0 3.657 0 0 0 3.657 0 3.657 0l179.2 160.914c7.314 7.314 7.314 18.286 0 25.6s-18.286 7.314-25.6 0l-146.286-131.657c0 73.143-14.629 245.029-128 369.371-76.8 84.114-182.857 124.343-314.514 128-10.971 0-18.286-7.314-18.286-18.286s10.971-14.629 18.286-14.629zM91.429 109.714h841.143c10.971 0 18.286 7.314 18.286 18.286v310.857c0 10.971-7.314 18.286-18.286 18.286s-18.286-7.314-18.286-18.286v-292.571h-804.571v292.571c0 10.971-7.314 18.286-18.286 18.286s-18.286-7.314-18.286-18.286v-310.857c0-10.971 7.314-18.286 18.286-18.286z" />
<glyph unicode="&#xe618;" d="M91.429 420.571c0-58.514 47.543-102.4 102.4-102.4s102.4 47.543 102.4 102.4-47.543 102.4-102.4 102.4-102.4-43.886-102.4-102.4zM259.657 420.571c0-36.571-29.257-65.829-65.829-65.829s-65.829 29.257-65.829 65.829 29.257 65.829 65.829 65.829 65.829-29.257 65.829-65.829zM409.6 420.571c0-58.514 47.543-102.4 102.4-102.4s102.4 47.543 102.4 102.4-47.543 102.4-102.4 102.4-102.4-43.886-102.4-102.4zM577.829 420.571c0-36.571-29.257-65.829-65.829-65.829s-65.829 29.257-65.829 65.829 29.257 65.829 65.829 65.829 65.829-29.257 65.829-65.829zM830.171 522.971c-58.514 0-102.4-47.543-102.4-102.4s47.543-102.4 102.4-102.4 102.4 47.543 102.4 102.4-47.543 102.4-102.4 102.4zM830.171 354.743c-36.571 0-65.829 29.257-65.829 65.829s29.257 65.829 65.829 65.829 65.829-29.257 65.829-65.829-29.257-65.829-65.829-65.829z" />
<glyph unicode="&#xe619;" d="M859.429 749.714c-10.971 0-18.286-7.314-18.286-18.286v-365.714h-643.657l164.571 171.886c7.314 7.314 7.314 18.286 0 25.6s-18.286 7.314-25.6 0l-197.486-201.143c-3.657-3.657-7.314-14.629-3.657-18.286s10.971-14.629 18.286-14.629c0-3.657 0-10.971 3.657-14.629l182.857-182.857c3.657-3.657 7.314-3.657 14.629-3.657s10.971 0 14.629 3.657c7.314 7.314 7.314 18.286 0 25.6l-168.229 171.886h658.286c10.971 0 18.286 7.314 18.286 18.286v384c0 10.971-7.314 18.286-18.286 18.286z" />
<glyph unicode="&#xe61a;" d="M614.4 786.286c-10.971 0-18.286-10.971-14.629-21.943 0-10.971 10.971-18.286 21.943-14.629 69.486 7.314 146.286 7.314 182.857 0l-266.971-266.971c-7.314-7.314-7.314-18.286 0-25.6 3.657-3.657 7.314-3.657 14.629-3.657s10.971 0 14.629 3.657l266.971 266.971c7.314-36.571 7.314-113.371 0-182.857 0-10.971 7.314-18.286 14.629-21.943 0 0 0 0 3.657 0 10.971 0 18.286 7.314 18.286 14.629 3.657 43.886 18.286 197.486-18.286 230.4-43.886 40.229-193.829 25.6-237.714 21.943zM384 58.514c10.971 0 18.286 10.971 14.629 21.943 0 10.971-10.971 18.286-21.943 14.629-69.486-7.314-146.286-7.314-182.857 0l277.943 277.943c7.314 7.314 7.314 18.286 0 25.6s-18.286 7.314-25.6 0l-277.943-277.943c-7.314 36.571-7.314 113.371 0 182.857 0 10.971-7.314 18.286-14.629 21.943-10.971 0-18.286-7.314-21.943-14.629-3.657-43.886-18.286-197.486 18.286-230.4 18.286-18.286 69.486-25.6 120.686-25.6 47.543-3.657 91.429 0 113.371 3.657z" />
<glyph unicode="&#xe61b;" d="M504.686 142.628c223.086 0 449.829 263.314 460.8 274.286 7.314 7.314 7.314 18.286 0 25.6-10.971 10.971-237.714 274.286-460.8 274.286-223.086-3.657-449.829-266.971-460.8-277.943-7.314-7.314-7.314-18.286 0-25.6 10.971-7.314 237.714-270.629 460.8-270.629zM504.686 676.571c182.857 0 376.686-197.486 424.229-248.686-47.543-51.2-241.371-248.686-424.229-248.686s-376.686 197.486-424.229 248.686c51.2 51.2 245.029 248.686 424.229 248.686zM504.686 270.628c87.771 0 157.257 69.486 157.257 157.257s-69.486 157.257-157.257 157.257-157.257-69.486-157.257-157.257 73.143-157.257 157.257-157.257zM504.686 548.571c65.829 0 120.686-54.857 120.686-120.686s-54.857-120.686-120.686-120.686c-65.829 0-120.686 54.857-120.686 120.686s54.857 120.686 120.686 120.686z" />
<glyph unicode="&#xe61c;" d="M387.657 292.571c3.657-3.657 7.314-3.657 10.971-3.657s10.971 3.657 14.629 7.314c7.314 7.314 3.657 18.286-3.657 25.6l-149.943 117.029 153.6 120.686c7.314 7.314 10.971 18.286 3.657 25.6s-18.286 10.971-25.6 3.657l-171.886-135.314c-3.657-3.657-7.314-7.314-7.314-14.629s3.657-10.971 7.314-14.629l168.229-131.657zM588.8 296.228c3.657-3.657 7.314-7.314 14.629-7.314 3.657 0 7.314 0 10.971 3.657l171.886 135.314c3.657 3.657 7.314 7.314 7.314 14.629s-3.657 10.971-7.314 14.629l-168.229 131.657c-7.314 7.314-18.286 3.657-25.6-3.657s-3.657-18.286 3.657-25.6l149.943-117.029-153.6-120.686c-7.314-7.314-7.314-18.286-3.657-25.6zM457.143 274.286c0 0 3.657 0 3.657 0 7.314 0 14.629 3.657 18.286 14.629l91.429 296.229c3.657 10.971-3.657 18.286-10.971 21.943-10.971 3.657-18.286-3.657-21.943-10.971l-91.429-296.229c-3.657-10.971 0-21.943 10.971-25.6zM896 877.714h-768c-10.971 0-18.286-7.314-18.286-18.286v-841.143c0-10.971 7.314-18.286 18.286-18.286h768c10.971 0 18.286 7.314 18.286 18.286v841.143c0 10.971-7.314 18.286-18.286 18.286zM877.714 36.571h-731.429v804.571h731.429v-804.571z" />
<glyph unicode="&#xe61d;" d="M347.429 0h585.143c10.971 0 18.286 7.314 18.286 18.286v694.857c0 10.971-7.314 18.286-18.286 18.286h-201.143v128c0 10.971-7.314 18.286-18.286 18.286h-585.143c-10.971 0-18.286-7.314-18.286-18.286v-694.857c0-10.971 7.314-18.286 18.286-18.286h201.143v-128c0-10.971 7.314-18.286 18.286-18.286zM914.286 694.857v-658.286h-548.571v109.714h347.429c10.971 0 18.286 7.314 18.286 18.286v530.286h182.857zM146.286 841.143h548.571v-658.286h-548.571v658.286zM256 694.857h329.143c10.971 0 18.286 7.314 18.286 18.286s-7.314 18.286-18.286 18.286h-329.143c-10.971 0-18.286-7.314-18.286-18.286s7.314-18.286 18.286-18.286zM256 585.143h329.143c10.971 0 18.286 7.314 18.286 18.286s-7.314 18.286-18.286 18.286h-329.143c-10.971 0-18.286-7.314-18.286-18.286s7.314-18.286 18.286-18.286zM256 475.428h329.143c10.971 0 18.286 7.314 18.286 18.286s-7.314 18.286-18.286 18.286h-329.143c-10.971 0-18.286-7.314-18.286-18.286s7.314-18.286 18.286-18.286zM457.143 384c0 10.971-7.314 18.286-18.286 18.286h-182.857c-10.971 0-18.286-7.314-18.286-18.286s7.314-18.286 18.286-18.286h182.857c10.971 0 18.286 7.314 18.286 18.286z" />
<glyph unicode="&#xe61e;" d="M402.286 201.143c3.657-3.657 7.314-3.657 10.971-3.657s10.971 3.657 14.629 7.314c7.314 7.314 3.657 18.286-3.657 25.6l-128 98.743 131.657 102.4c7.314 7.314 10.971 18.286 3.657 25.6s-18.286 10.971-25.6 3.657l-149.943-117.029c-3.657-3.657-7.314-7.314-7.314-14.629s3.657-10.971 7.314-14.629l146.286-113.371zM581.486 431.543l128-98.743-131.657-102.4c-7.314-7.314-10.971-18.286-3.657-25.6 3.657-3.657 7.314-7.314 14.629-7.314 3.657 0 7.314 0 10.971 3.657l149.943 117.029c3.657 3.657 7.314 7.314 7.314 14.629s-3.657 10.971-7.314 14.629l-146.286 113.371c-7.314 7.314-18.286 3.657-25.6-3.657-3.657-7.314-3.657-18.286 3.657-25.6zM548.571 475.428c-10.971 3.657-18.286-3.657-21.943-10.971l-76.8-256c-3.657-10.971 3.657-18.286 10.971-21.943 0 0 3.657 0 3.657 0 7.314 0 14.629 3.657 18.286 14.629l76.8 256c7.314 7.314 0 14.629-10.971 18.286zM896 877.714h-768c-10.971 0-18.286-7.314-18.286-18.286v-841.143c0-10.971 7.314-18.286 18.286-18.286h768c10.971 0 18.286 7.314 18.286 18.286v841.143c0 10.971-7.314 18.286-18.286 18.286zM877.714 36.571h-731.429v804.571h731.429v-804.571zM402.286 621.714h-109.714v109.714h109.714v36.571h-146.286v-182.857h146.286zM585.143 694.857h-109.714v36.571h109.714v36.571h-146.286v-109.714h109.714v-36.571h-109.714v-36.571h146.286zM768 694.857h-109.714v36.571h109.714v36.571h-146.286v-109.714h109.714v-36.571h-109.714v-36.571h146.286z" />
<glyph unicode="&#xe61f;" d="M431.543 457.143c-7.314 7.314-18.286 10.971-25.6 3.657l-149.943-117.029c-3.657-3.657-7.314-7.314-7.314-14.629s3.657-10.971 7.314-14.629l146.286-113.371c3.657-3.657 7.314-3.657 10.971-3.657s10.971 3.657 14.629 7.314c7.314 7.314 3.657 18.286-3.657 25.6l-128 98.743 131.657 102.4c7.314 7.314 7.314 18.286 3.657 25.6zM607.086 460.8c-7.314 7.314-18.286 3.657-25.6-3.657s-3.657-18.286 3.657-25.6l128-98.743-131.657-102.4c-7.314-7.314-10.971-18.286-3.657-25.6 3.657-3.657 7.314-7.314 14.629-7.314 3.657 0 7.314 0 10.971 3.657l149.943 117.029c3.657 3.657 7.314 7.314 7.314 14.629s-3.657 10.971-7.314 14.629l-146.286 113.371zM548.571 475.428c-10.971 3.657-18.286-3.657-21.943-10.971l-76.8-256c-3.657-10.971 3.657-18.286 10.971-21.943 0 0 3.657 0 3.657 0 7.314 0 14.629 3.657 18.286 14.629l76.8 256c7.314 7.314 0 14.629-10.971 18.286zM914.286 859.428c0 10.971-7.314 18.286-18.286 18.286h-768c-10.971 0-18.286-7.314-18.286-18.286v-841.143c0-10.971 7.314-18.286 18.286-18.286h768c10.971 0 18.286 7.314 18.286 18.286v841.143zM877.714 36.571h-731.429v804.571h731.429v-804.571zM219.429 658.286h73.143v-73.143h36.571v182.857h-36.571v-73.143h-73.143v73.143h-36.571v-182.857h36.571zM548.571 698.514l40.229-47.543c3.657-3.657 7.314-7.314 14.629-7.314v0c7.314 0 10.971 3.657 14.629 7.314l40.229 47.543v-113.371h36.571v164.571c0 7.314-3.657 14.629-10.971 18.286s-14.629 0-21.943-7.314l-58.514-73.143-58.514 73.143c-3.657 7.314-14.629 7.314-21.943 7.314-7.314-3.657-10.971-10.971-10.971-18.286v-164.571h36.571v113.371zM402.286 585.143h36.571v146.286h36.571v36.571h-109.714v-36.571h36.571zM841.143 585.143v36.571h-73.143v146.286h-36.571v-182.857h36.571z" />
<glyph unicode="&#xe620;" d="M896 877.714h-768c-10.971 0-18.286-7.314-18.286-18.286v-841.143c0-10.971 7.314-18.286 18.286-18.286h768c10.971 0 18.286 7.314 18.286 18.286v841.143c0 10.971-7.314 18.286-18.286 18.286zM877.714 36.571h-731.429v804.571h731.429v-804.571zM204.8 109.714h581.486c10.971 0 18.286 7.314 18.286 18.286v160.914c0 3.657 0 7.314-3.657 10.971l-91.429 128c-3.657 3.657-7.314 7.314-14.629 7.314s-10.971-3.657-14.629-7.314l-65.829-84.114-124.343 171.886c-3.657 3.657-7.314 7.314-14.629 7.314s-10.971-3.657-14.629-7.314l-270.629-376.686c-3.657-7.314-3.657-14.629 0-18.286 3.657-7.314 10.971-10.971 14.629-10.971zM475.429 475.428l120.686-171.886c3.657-3.657 7.314-7.314 14.629-7.314 3.657 0 10.971 3.657 14.629 7.314l65.829 84.114 73.143-106.057v-135.314h-522.971l234.057 329.143zM318.171 537.6c62.171 0 117.029 51.2 117.029 117.029s-51.2 113.371-117.029 113.371c-62.171 0-113.371-51.2-113.371-113.371s51.2-117.029 113.371-117.029zM318.171 731.428c43.886 0 80.457-36.571 80.457-80.457s-36.571-80.457-80.457-80.457c-43.886 0-80.457 36.571-80.457 80.457s36.571 80.457 80.457 80.457z" />
<glyph unicode="&#xe621;" d="M402.286 201.143c3.657-3.657 7.314-3.657 10.971-3.657s10.971 3.657 14.629 7.314c7.314 7.314 3.657 18.286-3.657 25.6l-128 98.743 131.657 102.4c7.314 7.314 10.971 18.286 3.657 25.6s-18.286 10.971-25.6 3.657l-149.943-117.029c-3.657-3.657-7.314-7.314-7.314-14.629s3.657-10.971 7.314-14.629l146.286-113.371zM581.486 457.143c-7.314-7.314-3.657-18.286 3.657-25.6l128-98.743-131.657-102.4c-7.314-7.314-10.971-18.286-3.657-25.6 3.657-3.657 7.314-7.314 14.629-7.314 3.657 0 7.314 0 10.971 3.657l149.943 117.029c3.657 3.657 7.314 7.314 7.314 14.629s-3.657 10.971-7.314 14.629l-146.286 113.371c-10.971 3.657-21.943 3.657-25.6-3.657zM548.571 475.428c-10.971 3.657-18.286-3.657-21.943-10.971l-76.8-256c-3.657-10.971 3.657-18.286 10.971-21.943 0 0 3.657 0 3.657 0 7.314 0 14.629 3.657 18.286 14.629l76.8 256c7.314 7.314 0 14.629-10.971 18.286zM914.286 859.428c0 10.971-7.314 18.286-18.286 18.286h-768c-10.971 0-18.286-7.314-18.286-18.286v-841.143c0-10.971 7.314-18.286 18.286-18.286h768c10.971 0 18.286 7.314 18.286 18.286v841.143zM877.714 36.571h-731.429v804.571h731.429v-804.571zM475.429 768h-36.571v-146.286h-73.143v36.571h-36.571v-73.143h146.286zM658.286 694.857h-109.714v36.571h109.714v36.571h-146.286v-109.714h109.714v-36.571h-109.714v-36.571h146.286z" />
<glyph unicode="&#xe622;" d="M431.543 457.143c-7.314 7.314-18.286 10.971-25.6 3.657l-149.943-117.029c-3.657-3.657-7.314-7.314-7.314-14.629s3.657-10.971 7.314-14.629l146.286-113.371c3.657-3.657 7.314-3.657 10.971-3.657s10.971 3.657 14.629 7.314c7.314 7.314 3.657 18.286-3.657 25.6l-128 98.743 131.657 102.4c7.314 7.314 7.314 18.286 3.657 25.6zM607.086 460.8c-7.314 7.314-18.286 3.657-25.6-3.657s-3.657-18.286 3.657-25.6l128-98.743-131.657-102.4c-7.314-7.314-10.971-18.286-3.657-25.6 3.657-3.657 7.314-7.314 14.629-7.314 3.657 0 7.314 0 10.971 3.657l149.943 117.029c3.657 3.657 7.314 7.314 7.314 14.629s-3.657 10.971-7.314 14.629l-146.286 113.371zM548.571 475.428c-10.971 3.657-18.286-3.657-21.943-10.971l-76.8-256c-3.657-10.971 3.657-18.286 10.971-21.943 0 0 3.657 0 3.657 0 7.314 0 14.629 3.657 18.286 14.629l76.8 256c7.314 7.314 0 14.629-10.971 18.286zM128 0h768c10.971 0 18.286 7.314 18.286 18.286v841.143c0 10.971-7.314 18.286-18.286 18.286h-768c-10.971 0-18.286-7.314-18.286-18.286v-841.143c0-10.971 7.314-18.286 18.286-18.286zM146.286 841.143h731.429v-804.571h-731.429v804.571zM475.429 658.286h73.143v-73.143h36.571v182.857h-36.571v-73.143h-73.143v73.143h-36.571v-182.857h36.571zM292.571 658.286h109.714v109.714h-146.286v-182.857h36.571v73.143zM292.571 731.428h73.143v-36.571h-73.143v36.571zM658.286 768h-36.571v-182.857h36.571v73.143h109.714v109.714h-109.714zM731.429 694.857h-73.143v36.571h73.143v-36.571z" />
<glyph unicode="&#xe623;" d="M256 402.286h512c10.971 0 18.286 7.314 18.286 18.286s-7.314 18.286-18.286 18.286h-512c-10.971 0-18.286-7.314-18.286-18.286s7.314-18.286 18.286-18.286zM256 292.571h512c10.971 0 18.286 7.314 18.286 18.286s-7.314 18.286-18.286 18.286h-512c-10.971 0-18.286-7.314-18.286-18.286s7.314-18.286 18.286-18.286zM256 182.857h329.143c10.971 0 18.286 7.314 18.286 18.286s-7.314 18.286-18.286 18.286h-329.143c-10.971 0-18.286-7.314-18.286-18.286s7.314-18.286 18.286-18.286zM585.143 658.286h-109.714v36.571h109.714v36.571h-146.286v-109.714h109.714v-36.571h-109.714v-36.571h146.286zM896 877.714h-768c-10.971 0-18.286-7.314-18.286-18.286v-841.143c0-10.971 7.314-18.286 18.286-18.286h768c10.971 0 18.286 7.314 18.286 18.286v841.143c0 10.971-7.314 18.286-18.286 18.286zM877.714 36.571h-731.429v804.571h731.429v-804.571zM292.571 621.714h109.714v109.714h-146.286v-182.857h36.571v73.143zM292.571 694.857h73.143v-36.571h-73.143v36.571zM731.429 585.143h-73.143v109.714h73.143v36.571h-109.714v-182.857h109.714zM731.429 694.857h36.571v-109.714h-36.571v109.714z" />
<glyph unicode="&#xe624;" d="M256 402.286h512c10.971 0 18.286 7.314 18.286 18.286s-7.314 18.286-18.286 18.286h-512c-10.971 0-18.286-7.314-18.286-18.286s7.314-18.286 18.286-18.286zM256 292.571h512c10.971 0 18.286 7.314 18.286 18.286s-7.314 18.286-18.286 18.286h-512c-10.971 0-18.286-7.314-18.286-18.286s7.314-18.286 18.286-18.286zM256 182.857h329.143c10.971 0 18.286 7.314 18.286 18.286s-7.314 18.286-18.286 18.286h-329.143c-10.971 0-18.286-7.314-18.286-18.286s7.314-18.286 18.286-18.286zM449.829 544.914c7.314-3.657 14.629 0 21.943 7.314l58.514 76.8 58.514-76.8c3.657-3.657 7.314-7.314 14.629-7.314 3.657 0 3.657 0 7.314 0 7.314 3.657 10.971 10.971 10.971 18.286v168.229h-36.571v-117.029l-40.229 54.857c-3.657 3.657-7.314 7.314-14.629 7.314 0 0 0 0 0 0-7.314 0-10.971-3.657-14.629-7.314l-40.229-54.857v117.029h-36.571v-171.886c0-7.314 3.657-14.629 10.971-14.629zM694.857 621.714h73.143v36.571h-73.143v36.571h73.143v36.571h-109.714v-182.857h36.571zM402.286 658.286h-109.714v36.571h109.714v36.571h-146.286v-109.714h109.714v-36.571h-109.714v-36.571h146.286zM896 877.714h-768c-10.971 0-18.286-7.314-18.286-18.286v-841.143c0-10.971 7.314-18.286 18.286-18.286h768c10.971 0 18.286 7.314 18.286 18.286v841.143c0 10.971-7.314 18.286-18.286 18.286zM877.714 36.571h-731.429v804.571h731.429v-804.571z" />
<glyph unicode="&#xe625;" d="M146.286 859.428v-841.143c0-10.971 7.314-18.286 18.286-18.286h694.857c10.971 0 18.286 7.314 18.286 18.286v841.143c0 10.971-7.314 18.286-18.286 18.286h-694.857c-10.971 0-18.286-7.314-18.286-18.286zM182.857 841.143h658.286v-804.571h-658.286v804.571zM731.429 731.428h-438.857c-10.971 0-18.286-7.314-18.286-18.286s7.314-18.286 18.286-18.286h438.857c10.971 0 18.286 7.314 18.286 18.286s-7.314 18.286-18.286 18.286zM731.429 621.714h-438.857c-10.971 0-18.286-7.314-18.286-18.286s7.314-18.286 18.286-18.286h438.857c10.971 0 18.286 7.314 18.286 18.286s-7.314 18.286-18.286 18.286zM731.429 512h-438.857c-10.971 0-18.286-7.314-18.286-18.286s7.314-18.286 18.286-18.286h438.857c10.971 0 18.286 7.314 18.286 18.286s-7.314 18.286-18.286 18.286zM731.429 402.286h-438.857c-10.971 0-18.286-7.314-18.286-18.286s7.314-18.286 18.286-18.286h438.857c10.971 0 18.286 7.314 18.286 18.286s-7.314 18.286-18.286 18.286zM548.571 292.571h-256c-10.971 0-18.286-7.314-18.286-18.286s7.314-18.286 18.286-18.286h256c10.971 0 18.286 7.314 18.286 18.286s-7.314 18.286-18.286 18.286z" />
<glyph unicode="&#xe626;" d="M932.571 731.428h-91.429v54.857c0 10.971-7.314 18.286-18.286 18.286h-91.429v54.857c0 10.971-7.314 18.286-18.286 18.286h-585.143c-10.971 0-18.286-7.314-18.286-18.286v-694.857c0-10.971 7.314-18.286 18.286-18.286h91.429v-54.857c0-10.971 7.314-18.286 18.286-18.286h91.429v-54.857c0-10.971 7.314-18.286 18.286-18.286h585.143c10.971 0 18.286 7.314 18.286 18.286v694.857c0 10.971-7.314 18.286-18.286 18.286zM146.286 841.143h548.571v-658.286h-548.571v658.286zM256 146.286h457.143c10.971 0 18.286 7.314 18.286 18.286v603.429h73.143v-658.286h-548.571v36.571zM914.286 36.571h-548.571v36.571h457.143c10.971 0 18.286 7.314 18.286 18.286v603.429h73.143v-658.286zM256 694.857h329.143c10.971 0 18.286 7.314 18.286 18.286s-7.314 18.286-18.286 18.286h-329.143c-10.971 0-18.286-7.314-18.286-18.286s7.314-18.286 18.286-18.286zM256 585.143h329.143c10.971 0 18.286 7.314 18.286 18.286s-7.314 18.286-18.286 18.286h-329.143c-10.971 0-18.286-7.314-18.286-18.286s7.314-18.286 18.286-18.286zM256 475.428h329.143c10.971 0 18.286 7.314 18.286 18.286s-7.314 18.286-18.286 18.286h-329.143c-10.971 0-18.286-7.314-18.286-18.286s7.314-18.286 18.286-18.286zM256 365.714h182.857c10.971 0 18.286 7.314 18.286 18.286s-7.314 18.286-18.286 18.286h-182.857c-10.971 0-18.286-7.314-18.286-18.286s7.314-18.286 18.286-18.286z" />
<glyph unicode="&#xe627;" d="M501.029 18.286c197.486 0 299.886 29.257 299.886 84.114 0 40.229-135.314 274.286-182.857 354.743v292.571c3.657 10.971-3.657 18.286-14.629 18.286h-182.857c-10.971 0-18.286-7.314-18.286-18.286v-296.229c-10.971-18.286-29.257-47.543-54.857-87.771-7.314-7.314-10.971-14.629-10.971-21.943-54.857-95.086-120.686-212.114-120.686-245.029 0-65.829 113.371-80.457 285.257-80.457zM435.2 438.857c0 3.657 3.657 7.314 3.657 10.971v281.6h146.286v-281.6c0-3.657 0-7.314 3.657-10.971 10.971-18.286 18.286-32.914 29.257-51.2-36.571 10.971-80.457 14.629-113.371 14.629-29.257 0-65.829 0-98.743-10.971 10.971 18.286 21.943 32.914 29.257 47.543zM376.686 343.771c14.629 10.971 58.514 21.943 128 21.943 76.8 0 124.343-18.286 131.657-25.6-10.971-7.314-54.857-25.6-131.657-25.6s-120.686 14.629-131.657 25.6c3.657 0 3.657 3.657 3.657 3.657zM354.743 307.2c32.914-21.943 102.4-29.257 149.943-29.257s124.343 7.314 153.6 32.914c58.514-102.4 106.057-193.829 106.057-212.114 0-10.971-43.886-47.543-263.314-47.543-208.457 0-252.343 25.6-252.343 47.543 3.657 21.943 47.543 109.714 106.057 208.457zM365.714 804.571h292.571c10.971 0 18.286 7.314 18.286 18.286s-7.314 18.286-18.286 18.286h-292.571c-10.971 0-18.286-7.314-18.286-18.286s7.314-18.286 18.286-18.286z" />
<glyph unicode="&#xe628;" d="M943.543 548.571h-65.829l-7.314 128c0 10.971-7.314 18.286-18.286 18.286h-365.714l-25.6 62.171c-7.314 7.314-14.629 10.971-21.943 10.971h-270.629c-7.314 0-14.629-7.314-18.286-14.629l-10.971-120.686-7.314-84.114h-65.829c-3.657 0-10.971-3.657-14.629-7.314s-3.657-10.971-3.657-14.629l54.857-438.857c0-7.314 7.314-14.629 14.629-14.629h786.286c10.971 0 18.286 7.314 18.286 18.286l36.571 438.857c0 3.657 0 10.971-3.657 14.629-3.657 0-7.314 3.657-10.971 3.657zM171.886 629.028l14.629 102.4h241.371l25.6-62.171c3.657-7.314 10.971-10.971 18.286-10.971h362.057l7.314-109.714h-672.914l3.657 80.457zM888.686 109.714h-753.371l-51.2 402.286h833.829l-29.257-402.286z" />
<glyph unicode="&#xe629;" d="M932.571 658.286h-453.486l-32.914 98.743c0 7.314-7.314 10.971-14.629 10.971h-314.514c-7.314 0-14.629-7.314-14.629-14.629l-29.257-128c0 0 0-3.657 0-3.657v-530.286c0-10.971 7.314-18.286 18.286-18.286h841.143c10.971 0 18.286 7.314 18.286 18.286v548.571c0 10.971-7.314 18.286-18.286 18.286zM914.286 109.714h-804.571v508.343l25.6 113.371h281.6l32.914-98.743c0-7.314 7.314-10.971 18.286-10.971h446.171v-512z" />
<glyph unicode="&#xe62a;" d="M932.571 768h-512c-10.971 0-18.286-7.314-18.286-18.286v-146.286c0-10.971 7.314-18.286 18.286-18.286h512c10.971 0 18.286 7.314 18.286 18.286v146.286c0 10.971-7.314 18.286-18.286 18.286zM914.286 621.714h-475.429v109.714h475.429v-109.714zM73.143 749.714v-146.286c0-10.971 7.314-18.286 18.286-18.286h182.857c10.971 0 18.286 7.314 18.286 18.286v146.286c0 10.971-7.314 18.286-18.286 18.286h-182.857c-10.971 0-18.286-7.314-18.286-18.286zM109.714 731.428h146.286v-109.714h-146.286v109.714zM932.571 512h-512c-10.971 0-18.286-7.314-18.286-18.286v-146.286c0-10.971 7.314-18.286 18.286-18.286h512c10.971 0 18.286 7.314 18.286 18.286v146.286c0 10.971-7.314 18.286-18.286 18.286zM914.286 365.714h-475.429v109.714h475.429v-109.714zM73.143 347.428c0-10.971 7.314-18.286 18.286-18.286h182.857c10.971 0 18.286 7.314 18.286 18.286v146.286c0 10.971-7.314 18.286-18.286 18.286h-182.857c-10.971 0-18.286-7.314-18.286-18.286v-146.286zM109.714 475.428h146.286v-109.714h-146.286v109.714zM932.571 256h-512c-10.971 0-18.286-7.314-18.286-18.286v-146.286c0-10.971 7.314-18.286 18.286-18.286h512c10.971 0 18.286 7.314 18.286 18.286v146.286c0 10.971-7.314 18.286-18.286 18.286zM914.286 109.714h-475.429v109.714h475.429v-109.714zM73.143 91.428c0-10.971 7.314-18.286 18.286-18.286h182.857c10.971 0 18.286 7.314 18.286 18.286v146.286c0 10.971-7.314 18.286-18.286 18.286h-182.857c-10.971 0-18.286-7.314-18.286-18.286v-146.286zM109.714 219.428h146.286v-109.714h-146.286v109.714z" />
<glyph unicode="&#xe62b;" d="M914.286 347.428v182.857c0 10.971-7.314 18.286-18.286 18.286h-102.4c0 3.657-3.657 7.314-3.657 10.971-3.657 7.314-3.657 10.971-7.314 18.286l65.829 62.171c3.657 3.657 7.314 7.314 7.314 14.629 0 3.657-3.657 10.971-3.657 14.629l-117.029 117.029c-3.657 3.657-10.971 3.657-14.629 3.657s-10.971-3.657-14.629-7.314l-58.514-65.829c-3.657 0-7.314 3.657-14.629 3.657-3.657 0-7.314 3.657-10.971 3.657v98.743c0 10.971-7.314 18.286-18.286 18.286h-182.857c-10.971 0-18.286-7.314-18.286-18.286v-95.086c-3.657 0-7.314-3.657-10.971-3.657-7.314-3.657-14.629-3.657-21.943-7.314l-65.829 65.829c-7.314 7.314-18.286 7.314-25.6 0l-117.029-117.029c-3.657-3.657-7.314-10.971-7.314-14.629s3.657-10.971 7.314-14.629l65.829-62.171c-3.657-3.657-7.314-7.314-7.314-14.629 0-3.657-3.657-7.314-3.657-10.971h-87.771c-10.971 0-18.286-7.314-18.286-18.286v-182.857c0-10.971 7.314-18.286 18.286-18.286h84.114c0-3.657 3.657-7.314 3.657-10.971 3.657-7.314 3.657-14.629 7.314-18.286l-62.171-62.171c-3.657-3.657-7.314-7.314-7.314-14.629 0-3.657 3.657-10.971 3.657-14.629l117.029-117.029c7.314-7.314 18.286-7.314 25.6 0l62.171 62.171c7.314-3.657 14.629-3.657 21.943-7.314 3.657 0 7.314-3.657 10.971-3.657v-91.429c0-10.971 7.314-18.286 18.286-18.286h182.857c10.971 0 18.286 7.314 18.286 18.286v95.086c3.657 0 7.314 3.657 10.971 3.657s10.971 3.657 14.629 7.314l58.514-62.171c3.657-3.657 7.314-7.314 14.629-7.314 3.657 0 10.971 3.657 14.629 3.657l117.029 117.029c3.657 3.657 3.657 7.314 3.657 14.629s-3.657 10.971-7.314 14.629l-65.829 58.514c3.657 7.314 3.657 14.629 7.314 18.286 0 3.657 3.657 7.314 3.657 10.971h102.4c18.286 3.657 25.6 10.971 25.6 21.943zM877.714 365.714h-95.086c-18.286 0-21.943-14.629-29.257-36.571-3.657-10.971-7.314-18.286-10.971-25.6s-3.657-14.629 3.657-21.943l58.514-54.857-87.771-91.429-54.857 58.514c-7.314 7.314-14.629 7.314-21.943 3.657s-14.629-7.314-21.943-10.971c-21.943-7.314-36.571-14.629-36.571-29.257v-84.114h-146.286v84.114c0 18.286-14.629 21.943-36.571 29.257-10.971 3.657-21.943 7.314-29.257 10.971s-14.629 3.657-21.943-3.657l-58.514-58.514-91.429 91.429 58.514 54.857c7.314 7.314 7.314 14.629 3.657 21.943s-7.314 18.286-7.314 25.6c-7.314 21.943-10.971 36.571-29.257 36.571h-76.8v146.286h76.8c14.629 0 21.943 14.629 29.257 36.571 3.657 7.314 7.314 18.286 10.971 25.6s3.657 14.629-3.657 21.943l-62.171 54.857 91.429 91.429 62.171-62.171c7.314-7.314 14.629-7.314 21.943-3.657s18.286 7.314 25.6 10.971c21.943 7.314 36.571 10.971 36.571 29.257v87.771h146.286v-87.771c0-14.629 14.629-21.943 32.914-29.257 7.314-3.657 14.629-7.314 21.943-10.971s18.286-3.657 21.943 3.657l51.2 58.514 91.429-91.429-62.171-58.514c-7.314-7.314-7.314-14.629-3.657-21.943s7.314-14.629 10.971-25.6c7.314-21.943 14.629-36.571 29.257-36.571h102.4v-138.971zM504.686 563.2c-69.486 0-124.343-54.857-124.343-124.343s54.857-124.343 124.343-124.343 124.343 54.857 124.343 124.343-58.514 124.343-124.343 124.343zM504.686 347.428c-47.543 0-87.771 40.229-87.771 87.771s40.229 87.771 87.771 87.771 87.771-40.229 87.771-87.771c0-47.543-40.229-87.771-87.771-87.771z" />
<glyph unicode="&#xe62c;" d="M391.314 669.257c0 0 0 0 0 0-7.314 0-14.629-3.657-18.286-10.971l-146.286-398.629c-3.657-10.971 0-18.286 10.971-21.943 3.657 0 3.657 0 7.314 0 7.314 0 14.629 3.657 18.286 10.971l128 354.743 109.714-266.971c3.657-7.314 10.971-10.971 18.286-10.971 0 0 0 0 0 0 7.314 0 14.629 3.657 18.286 10.971l168.229 387.657 182.857-446.171c3.657-10.971 14.629-14.629 25.6-10.971s14.629 14.629 10.971 25.6l-204.8 482.743c-3.657 7.314-10.971 10.971-18.286 10.971s-14.629-3.657-18.286-10.971l-168.229-387.657-109.714 270.629c-3.657 7.314-7.314 10.971-14.629 10.971zM91.429 109.714h822.857c10.971 0 18.286 7.314 18.286 18.286s-7.314 18.286-18.286 18.286h-804.571v585.143c0 10.971-7.314 18.286-18.286 18.286s-18.286-7.314-18.286-18.286v-603.429c0-10.971 7.314-18.286 18.286-18.286z" />
<glyph unicode="&#xe62d;" d="M438.857 658.286h146.286c10.971 0 18.286 7.314 18.286 18.286s-7.314 18.286-18.286 18.286h-146.286c-10.971 0-18.286-7.314-18.286-18.286s7.314-18.286 18.286-18.286zM804.571 541.257c65.829 0 120.686 54.857 120.686 120.686s-54.857 120.686-120.686 120.686-120.686-51.2-120.686-117.029c0-69.486 54.857-124.343 120.686-124.343zM804.571 749.714c47.543 0 84.114-36.571 84.114-84.114s-36.571-84.114-84.114-84.114-84.114 36.571-84.114 84.114c0 47.543 36.571 84.114 84.114 84.114zM204.8 541.257c65.829 0 120.686 54.857 120.686 120.686s-54.857 120.686-120.686 120.686c-69.486 3.657-124.343-51.2-124.343-117.029 0-69.486 54.857-124.343 124.343-124.343zM204.8 749.714c47.543 0 84.114-36.571 84.114-84.114s-36.571-84.114-84.114-84.114c-47.543 0-84.114 36.571-84.114 84.114-3.657 47.543 36.571 84.114 84.114 84.114zM504.686 65.828c65.829 0 120.686 54.857 120.686 120.686s-54.857 120.686-120.686 120.686c-65.829 0-120.686-54.857-120.686-120.686s54.857-120.686 120.686-120.686zM504.686 274.286c47.543 0 84.114-36.571 84.114-84.114s-36.571-84.114-84.114-84.114c-47.543 0-84.114 36.571-84.114 84.114 0 43.886 36.571 84.114 84.114 84.114zM281.6 508.343c-7.314-7.314-10.971-18.286-3.657-25.6l102.4-142.629c3.657-3.657 7.314-7.314 14.629-7.314 3.657 0 7.314 0 10.971 3.657 7.314 7.314 10.971 18.286 3.657 25.6l-102.4 142.629c-3.657 7.314-14.629 10.971-25.6 3.657zM702.171 504.686l-102.4-138.971c-7.314-7.314-3.657-18.286 3.657-25.6 3.657-3.657 7.314-3.657 10.971-3.657 7.314 0 10.971 3.657 14.629 7.314l102.4 142.629c7.314 7.314 3.657 18.286-3.657 25.6-10.971 3.657-21.943 0-25.6-7.314z" />
<glyph unicode="&#xe62e;" d="M497.371 877.714c-51.2 0-146.286-117.029-175.543-149.943-7.314-10.971-3.657-21.943 3.657-29.257 3.657-3.657 7.314-3.657 10.971-3.657s10.971 3.657 14.629 7.314c43.886 54.857 98.743 109.714 128 128v-325.486c0-10.971 7.314-18.286 18.286-18.286s18.286 7.314 18.286 18.286v325.486c32.914-18.286 87.771-76.8 128-128 7.314-7.314 18.286-7.314 25.6-3.657s7.314 18.286 3.657 25.6c-25.6 36.571-124.343 153.6-175.543 153.6zM647.314 179.2c-43.886-54.857-98.743-109.714-128-128v321.829c0 10.971-7.314 18.286-18.286 18.286s-18.286-7.314-18.286-18.286v-321.829c-32.914 18.286-87.771 76.8-128 128-7.314 7.314-18.286 7.314-25.6 3.657-7.314-7.314-7.314-18.286-3.657-25.6 29.257-36.571 124.343-149.943 175.543-149.943s146.286 117.029 175.543 149.943c7.314 7.314 3.657 18.286-3.657 25.6-7.314 3.657-21.943 3.657-25.6-3.657z" />
<glyph unicode="&#xe62f;" d="M504.686 844.8c-226.743 0-409.6-182.857-409.6-405.943s182.857-405.943 405.943-405.943 405.943 182.857 405.943 405.943-179.2 405.943-402.286 405.943zM504.686 69.486c-204.8 0-373.029 164.571-373.029 369.371s168.229 369.371 373.029 369.371 369.371-164.571 369.371-369.371-168.229-369.371-369.371-369.371zM497.371 731.428c-87.771 0-168.229-73.143-168.229-164.571 0-7.314 10.971-18.286 18.286-18.286s18.286 7.314 18.286 18.286c0 69.486 62.171 128 131.657 128s120.686-54.857 120.686-128c0-76.8-51.2-128-131.657-128-3.657 0-10.971-3.657-14.629-7.314s-3.657-10.971-3.657-14.629l14.629-80.457c0-7.314 10.971-14.629 18.286-14.629 0 0 3.657 0 3.657 0 10.971 3.657 14.629 10.971 14.629 21.943l-10.971 58.514c87.771 10.971 146.286 73.143 146.286 164.571 3.657 95.086-65.829 164.571-157.257 164.571zM504.686 277.943c-36.571 0-65.829-29.257-65.829-65.829s29.257-65.829 65.829-65.829 65.829 29.257 65.829 65.829-29.257 65.829-65.829 65.829zM504.686 182.857c-18.286 0-29.257 14.629-29.257 29.257s14.629 29.257 29.257 29.257 29.257-14.629 29.257-29.257-14.629-29.257-29.257-29.257z" />
<glyph unicode="&#xe630;" d="M347.429 138.971c0-43.886 25.6-95.086 95.086-95.086 138.971 0 212.114 109.714 215.771 113.371 3.657 7.314 3.657 14.629 0 21.943s-10.971 7.314-18.286 7.314c0 0-69.486-21.943-109.714-21.943-3.657 0-7.314 0-10.971 0 3.657 36.571 47.543 190.171 80.457 314.514 10.971 40.229 21.943 76.8 32.914 113.371 0 7.314 0 14.629-3.657 18.286s-10.971 7.314-18.286 3.657c-76.8-18.286-226.743-32.914-226.743-32.914-7.314 0-14.629-7.314-14.629-14.629s3.657-14.629 10.971-18.286c25.6-14.629 58.514-40.229 58.514-51.2s-18.286-73.143-32.914-128-58.514-201.143-58.514-230.4zM438.857 362.057c25.6 87.771 32.914 124.343 32.914 138.971 0 21.943-14.629 40.229-32.914 54.857 43.886 3.657 102.4 10.971 153.6 21.943-7.314-25.6-14.629-54.857-21.943-84.114-51.2-179.2-84.114-299.886-84.114-329.143 0-10.971 3.657-32.914 47.543-32.914 18.286 0 36.571 3.657 58.514 7.314-32.914-25.6-80.457-54.857-146.286-54.857-51.2 0-58.514 36.571-58.514 58.514-3.657 21.943 29.257 135.314 51.2 219.429zM672.914 768c0 51.2-43.886 95.086-95.086 95.086-62.171 0-95.086-54.857-95.086-95.086s29.257-95.086 95.086-95.086c51.2 3.657 95.086 43.886 95.086 95.086zM519.314 771.657c0 18.286 18.286 58.514 58.514 58.514 32.914 0 58.514-25.6 58.514-58.514s-25.6-58.514-58.514-58.514c-47.543 0-58.514 40.229-58.514 58.514z" />
<glyph unicode="&#xe631;" d="M296.229 7.314c120.686 0 219.429 98.743 219.429 219.429 0 10.971-7.314 18.286-18.286 18.286s-18.286-7.314-18.286-18.286c0-102.4-80.457-182.857-182.857-182.857s-182.857 80.457-182.857 182.857 80.457 182.857 182.857 182.857c10.971 0 18.286 7.314 18.286 18.286s-7.314 18.286-18.286 18.286c-120.686 0-219.429-98.743-219.429-219.429s95.086-219.429 219.429-219.429zM724.114 855.771c-58.514 3.657-117.029-10.971-160.914-51.2s-73.143-91.429-76.8-149.943c0-10.971 7.314-18.286 18.286-18.286s18.286 7.314 18.286 18.286c3.657 47.543 25.6 91.429 62.171 124.343s84.114 47.543 135.314 40.229c47.543-3.657 91.429-29.257 124.343-65.829s47.543-84.114 40.229-135.314c-3.657-47.543-29.257-91.429-65.829-124.343s-84.114-47.543-135.314-40.229c-10.971 0-18.286-7.314-18.286-18.286s7.314-18.286 18.286-18.286c7.314 0 14.629 0 21.943 0 51.2 0 98.743 18.286 138.971 51.2 43.886 36.571 73.143 91.429 76.8 149.943s-10.971 113.371-47.543 160.914-91.429 73.143-149.943 76.8zM281.6 215.771c3.657-3.657 7.314-3.657 14.629-3.657s10.971 0 14.629 3.657l405.943 409.6c7.314 7.314 7.314 18.286 0 25.6s-18.286 7.314-25.6 0l-409.6-409.6c-7.314-7.314-7.314-18.286 0-25.6z" />
<glyph unicode="&#xe632;" d="M859.429 475.428h-98.743c3.657 25.6 25.6 197.486-62.171 303.543-43.886 54.857-109.714 80.457-193.829 80.457s-149.943-25.6-193.829-80.457c-91.429-106.057-69.486-277.943-65.829-303.543h-80.457c-10.971 0-18.286-7.314-18.286-18.286v-438.857c0-10.971 7.314-18.286 18.286-18.286h694.857c10.971 0 18.286 7.314 18.286 18.286v438.857c0 10.971-7.314 18.286-18.286 18.286zM336.457 757.028c36.571 43.886 91.429 65.829 164.571 65.829s128-21.943 164.571-65.829c84.114-98.743 54.857-274.286 54.857-277.943 0 0 0-3.657 0-3.657h-438.857c0 0 0 3.657 0 3.657s-29.257 179.2 54.857 277.943zM841.143 36.571h-658.286v402.286h658.286v-402.286zM292.571 329.143h438.857c10.971 0 18.286 7.314 18.286 18.286s-7.314 18.286-18.286 18.286h-438.857c-10.971 0-18.286-7.314-18.286-18.286s7.314-18.286 18.286-18.286zM292.571 219.428h438.857c10.971 0 18.286 7.314 18.286 18.286s-7.314 18.286-18.286 18.286h-438.857c-10.971 0-18.286-7.314-18.286-18.286s7.314-18.286 18.286-18.286zM292.571 109.714h438.857c10.971 0 18.286 7.314 18.286 18.286s-7.314 18.286-18.286 18.286h-438.857c-10.971 0-18.286-7.314-18.286-18.286s7.314-18.286 18.286-18.286z" />
<glyph unicode="&#xe633;" d="M201.143 256c-25.6 0-54.857 3.657-80.457 10.971-7.314 0-14.629 0-18.286-7.314s-3.657-14.629 0-18.286c73.143-138.971 215.771-223.086 369.371-223.086 230.4 0 420.571 190.171 420.571 420.571s-190.171 420.571-420.571 420.571c-18.286 0-40.229 0-62.171-3.657-7.314 0-14.629-7.314-14.629-14.629-3.657-7.314 0-14.629 7.314-18.286 76.8-62.171 120.686-149.943 120.686-248.686-3.657-175.543-146.286-318.171-321.829-318.171zM555.886 574.171c0 95.086-36.571 182.857-102.4 248.686 7.314 0 10.971 0 18.286 0 212.114 0 384-171.886 384-384s-171.886-384-384-384c-128 0-245.029 62.171-318.171 168.229 14.629-3.657 32.914-3.657 47.543-3.657 197.486 0 354.743 157.257 354.743 354.743z" />
<glyph unicode="&#xe634;" d="M848.457 504.686c-25.6 0-47.543-7.314-69.486-18.286-32.914 73.143-95.086 131.657-175.543 157.257 3.657 14.629 7.314 29.257 7.314 43.886 3.657 32.914-3.657 62.171-14.629 84.114s-32.914 36.571-54.857 40.229c0 0-3.657 0-3.657 0-32.914 0-58.514-25.6-69.486-62.171-40.229 29.257-80.457 32.914-106.057 10.971-29.257-29.257-25.6-76.8 10.971-124.343-62.171-36.571-109.714-87.771-138.971-149.943-21.943 10.971-43.886 18.286-65.829 18.286-80.457 0-142.629-65.829-142.629-142.629s65.829-142.629 142.629-142.629c21.943 0 43.886 3.657 65.829 14.629 47.543-106.057 153.6-175.543 274.286-175.543s226.743 73.143 274.286 179.2c21.943-10.971 43.886-14.629 65.829-14.629 80.457 0 142.629 65.829 142.629 142.629s-65.829 138.971-142.629 138.971zM168.229 252.343c-58.514 0-106.057 47.543-106.057 106.057s47.543 106.057 106.057 106.057c18.286 0 36.571-3.657 51.2-14.629 0-3.657 0-3.657 0-7.314-3.657-7.314-3.657-18.286-7.314-25.6 0-7.314-3.657-10.971-3.657-18.286-3.657-14.629-3.657-29.257-3.657-43.886s0-29.257 3.657-43.886c0-3.657 0-3.657 0-7.314 3.657-10.971 3.657-25.6 10.971-36.571-18.286-10.971-32.914-14.629-51.2-14.629zM504.686 91.428c-113.371 0-212.114 73.143-248.686 175.543-3.657 7.314-3.657 14.629-7.314 21.943 0 0 0 3.657 0 3.657 0 7.314-3.657 10.971-3.657 18.286 0 3.657 0 7.314 0 7.314 0 3.657 0 10.971-3.657 14.629 0 7.314 0 14.629 0 25.6s0 25.6 3.657 36.571c0 3.657 0 3.657 0 7.314 3.657 10.971 3.657 21.943 7.314 36.571 0 0 0 3.657 0 3.657 25.6 76.8 80.457 138.971 157.257 168.229 7.314 3.657 10.971 7.314 10.971 14.629s0 10.971-3.657 18.286l-3.657 3.657c-36.571 40.229-40.229 73.143-25.6 87.771 3.657 3.657 10.971 7.314 18.286 7.314 18.286 0 40.229-10.971 62.171-32.914 3.657-14.629 10.971-18.286 18.286-14.629s10.971 7.314 10.971 14.629c7.314 36.571 21.943 62.171 43.886 62.171 0 0 0 0 0 0 10.971 0 18.286-10.971 25.6-18.286 7.314-14.629 10.971-40.229 10.971-65.829 0-18.286-3.657-36.571-10.971-51.2 0-3.657 0-10.971 0-14.629s7.314-7.314 10.971-7.314c84.114-21.943 149.943-87.771 179.2-168.229 0-3.657 3.657-7.314 3.657-7.314 3.657-10.971 7.314-21.943 7.314-36.571 0-3.657 0-3.657 0-7.314 3.657-14.629 3.657-25.6 3.657-40.229 0-7.314 0-18.286 0-25.6 0-3.657 0-10.971-3.657-14.629 0-3.657 0-7.314 0-7.314 0-7.314-3.657-14.629-3.657-18.286 0 0 0 0 0-3.657-3.657-7.314-3.657-14.629-7.314-21.943-40.229-98.743-135.314-171.886-252.343-171.886zM848.457 252.343c-18.286 0-36.571 3.657-51.2 14.629 3.657 14.629 7.314 29.257 10.971 40.229 0 3.657 0 3.657 0 7.314 3.657 14.629 3.657 29.257 3.657 40.229 0 14.629 0 32.914-3.657 47.543 0 0 0 0 0 3.657-3.657 14.629-7.314 29.257-10.971 43.886 0 0 0 0 0 0 14.629 10.971 36.571 14.629 54.857 14.629 58.514 0 106.057-47.543 106.057-106.057s-51.2-106.057-109.714-106.057zM398.629 420.571c-18.286 0-29.257-14.629-29.257-29.257s14.629-29.257 29.257-29.257c18.286 0 29.257 14.629 29.257 29.257s-14.629 29.257-29.257 29.257zM391.314 387.657c0 3.657 3.657 7.314 7.314 7.314s7.314-3.657 7.314-7.314c-3.657-7.314-14.629-7.314-14.629 0zM614.4 420.571c-18.286 0-29.257-14.629-29.257-29.257s14.629-29.257 29.257-29.257c18.286 0 29.257 14.629 29.257 29.257s-10.971 29.257-29.257 29.257zM610.743 387.657c0 3.657 3.657 7.314 7.314 7.314s7.314-3.657 7.314-7.314c-3.657-7.314-14.629-7.314-14.629 0zM585.143 256h-146.286c-10.971 0-18.286-7.314-18.286-18.286s7.314-18.286 18.286-18.286h146.286c10.971 0 18.286 7.314 18.286 18.286s-7.314 18.286-18.286 18.286z" />
<glyph unicode="&#xe635;" d="M786.286 877.714h-548.571c-10.971 0-18.286-7.314-18.286-18.286v-841.143c0-10.971 7.314-18.286 18.286-18.286h548.571c10.971 0 18.286 7.314 18.286 18.286v841.143c0 10.971-7.314 18.286-18.286 18.286zM768 36.571h-512v804.571h512v-804.571zM501.029 102.4c51.2 0 91.429 40.229 91.429 91.429s-40.229 91.429-91.429 91.429-91.429-40.229-91.429-91.429 40.229-91.429 91.429-91.429zM501.029 248.686c29.257 0 54.857-25.6 54.857-54.857s-25.6-54.857-54.857-54.857-54.857 25.6-54.857 54.857 21.943 54.857 54.857 54.857zM438.857 768h146.286c10.971 0 18.286 7.314 18.286 18.286s-7.314 18.286-18.286 18.286h-146.286c-10.971 0-18.286-7.314-18.286-18.286s7.314-18.286 18.286-18.286z" />
<glyph unicode="&#xe636;" d="M969.143 804.571h-914.286c-10.971 0-18.286-7.314-18.286-18.286v-694.857c0-10.971 7.314-18.286 18.286-18.286h914.286c10.971 0 18.286 7.314 18.286 18.286v694.857c0 10.971-7.314 18.286-18.286 18.286zM950.857 109.714h-877.714v658.286h877.714v-658.286zM208.457 193.828c0-7.314 7.314-10.971 14.629-10.971h636.343c10.971 0 18.286 7.314 18.286 18.286v171.886c0 3.657 0 10.971-3.657 10.971l-106.057 113.371c-7.314 7.314-18.286 7.314-25.6 0l-84.114-73.143-109.714 153.6c-3.657 3.657-7.314 7.314-14.629 7.314s-10.971-3.657-14.629-7.314l-307.2-365.714c-7.314-3.657-7.314-10.971-3.657-18.286zM530.286 537.6l106.057-149.943c3.657-3.657 7.314-7.314 10.971-7.314s10.971 0 14.629 3.657l87.771 76.8 91.429-95.086v-146.286h-577.829l266.971 318.171zM259.657 475.428c62.171 0 109.714 47.543 109.714 109.714s-47.543 109.714-109.714 109.714-109.714-47.543-109.714-109.714 47.543-109.714 109.714-109.714zM259.657 658.286c40.229 0 73.143-32.914 73.143-73.143s-32.914-73.143-73.143-73.143-73.143 32.914-73.143 73.143 32.914 73.143 73.143 73.143z" />
<glyph unicode="&#xe637;" d="M548.571 694.857h-420.571c-10.971 0-18.286-7.314-18.286-18.286v-621.714c0-10.971 7.314-18.286 18.286-18.286h621.714c10.971 0 18.286 7.314 18.286 18.286v384c0 10.971-7.314 18.286-18.286 18.286s-18.286-7.314-18.286-18.286v-365.714h-585.143v585.143h402.286c10.971 0 18.286 7.314 18.286 18.286s-7.314 18.286-18.286 18.286zM416.914 303.543c3.657-3.657 7.314-3.657 10.971-3.657s10.971 3.657 14.629 7.314l405.943 435.2 7.314-197.486c0-10.971 7.314-18.286 18.286-18.286 0 0 0 0 0 0 10.971 0 18.286 7.314 18.286 18.286l-7.314 241.371c0 3.657 0 3.657 0 7.314 0 0 0 0 0 0s0 0 0 0c0 3.657-3.657 3.657-7.314 7.314 0 0 0 0-3.657 0-3.657 3.657-3.657 3.657-7.314 3.657 0 0 0 0 0 0h-245.029c-10.971 0-18.286-7.314-18.286-18.286s7.314-18.286 18.286-18.286h201.143l-405.943-438.857c-7.314-7.314-7.314-18.286 0-25.6z" />
<glyph unicode="&#xe638;" d="M164.571 208.457c18.286 0 36.571 7.314 51.2 14.629 18.286 7.314 36.571 14.629 54.857 10.971 32.914-10.971 43.886-109.714 36.571-171.886 0-7.314 3.657-18.286 14.629-18.286 69.486-14.629 153.6-21.943 252.343-21.943 168.229 0 321.829 21.943 321.829 21.943 7.314 0 14.629 7.314 14.629 18.286v36.571c0 7.314-14.629 142.629-95.086 171.886-29.257 10.971-62.171 0-84.114-10.971-14.629-7.314-29.257-10.971-40.229-10.971s-25.6 7.314-32.914 18.286c-10.971 10.971-14.629 29.257-14.629 47.543 0 32.914 14.629 62.171 43.886 62.171 10.971 0 29.257-7.314 43.886-10.971 29.257-10.971 62.171-21.943 91.429-10.971 69.486 21.943 91.429 131.657 95.086 164.571 0 0 0 3.657 0 3.657v80.457c-3.657 10.971-10.971 18.286-21.943 18.286h-124.343c-40.229 0-109.714 7.314-124.343 51.2-7.314 18.286 0 36.571 10.971 54.857 7.314 18.286 14.629 32.914 14.629 54.857 0 18.286-7.314 36.571-21.943 51.2-36.571 36.571-113.371 36.571-153.6 0-14.629-14.629-21.943-36.571-21.943-54.857s7.314-36.571 14.629-54.857c7.314-21.943 14.629-36.571 10.971-54.857-3.657-14.629-32.914-43.886-186.514-43.886h-25.6c-7.314 0-10.971-3.657-14.629-10.971s-3.657-10.971 0-18.286c0 0 25.6-40.229 43.886-80.457 10.971-21.943 10.971-62.171-3.657-98.743-7.314-14.629-18.286-32.914-36.571-40.229s-36.571 3.657-54.857 10.971c-18.286 7.314-32.914 14.629-54.857 14.629-43.886 0-80.457-43.886-80.457-98.743-7.314-51.2 29.257-95.086 76.8-95.086zM164.571 373.028c10.971 0 25.6-7.314 40.229-10.971 21.943-10.971 54.857-21.943 84.114-10.971 25.6 7.314 47.543 29.257 58.514 58.514 18.286 40.229 18.286 95.086 3.657 128-10.971 14.629-21.943 36.571-29.257 51.2 131.657 0 201.143 21.943 215.771 69.486 10.971 32.914 0 58.514-10.971 84.114-7.314 14.629-10.971 25.6-10.971 40.229s7.314 25.6 14.629 29.257c25.6 25.6 76.8 21.943 102.4 0 7.314-7.314 10.971-14.629 10.971-25.6s-7.314-25.6-10.971-40.229c-10.971-21.943-21.943-51.2-10.971-80.457 10.971-36.571 47.543-76.8 160.914-76.8h95.086v-69.486c-7.314-43.886-29.257-120.686-69.486-135.314-18.286-7.314-43.886 3.657-65.829 10.971-18.286 7.314-36.571 14.629-58.514 14.629-43.886 0-80.457-43.886-80.457-98.743 0-25.6 7.314-51.2 25.6-69.486 18.286-21.943 40.229-32.914 62.171-32.914 18.286 0 36.571 7.314 54.857 14.629 21.943 7.314 40.229 18.286 58.514 10.971 51.2-18.286 69.486-106.057 73.143-138.971v-21.943c-43.886-7.314-168.229-21.943-299.886-21.943-87.771 0-164.571 7.314-226.743 18.286 3.657 51.2 0 171.886-62.171 193.829-29.257 10.971-58.514 0-80.457-10.971-14.629-7.314-25.6-10.971-36.571-10.971-25.6 0-47.543 29.257-47.543 65.829-7.314 36.571 14.629 65.829 40.229 65.829z" />
<glyph unicode="&#xe639;" d="M343.771 694.857c-84.114-43.886-146.286-117.029-171.886-204.8-29.257-87.771-21.943-182.857 21.943-266.971s117.029-146.286 204.8-171.886c36.571-10.971 69.486-18.286 106.057-18.286 54.857 0 109.714 14.629 160.914 40.229 171.886 87.771 237.714 299.886 149.943 471.771-3.657 7.314-14.629 10.971-25.6 7.314-7.314-3.657-10.971-14.629-7.314-25.6 80.457-153.6 18.286-343.771-135.314-424.229-73.143-40.229-160.914-43.886-241.371-21.943-80.457 25.6-146.286 80.457-182.857 153.6-40.229 73.143-47.543 160.914-21.943 241.371s80.457 146.286 153.6 182.857c80.457 40.229 201.143 21.943 288.914-14.629l-186.514-117.029c-7.314-3.657-10.971-18.286-7.314-25.6s10.971-7.314 14.629-7.314c3.657 0 7.314 0 10.971 3.657l215.771 135.314c7.314 3.657 10.971 14.629 7.314 25.6l-117.029 219.429c-3.657 7.314-14.629 10.971-25.6 7.314-7.314-3.657-10.971-14.629-7.314-25.6l91.429-171.886c-91.429 36.571-212.114 51.2-296.229 7.314z" />
<glyph unicode="&#xe63a;" d="M149.943 58.514l215.771 215.771c54.857-51.2 128-80.457 208.457-80.457 171.886 0 314.514 138.971 314.514 314.514s-138.971 314.514-314.514 314.514-314.514-138.971-314.514-314.514c0-80.457 29.257-153.6 80.457-208.457l-215.771-215.771 25.6-25.6zM574.171 786.286c153.6 0 277.943-124.343 277.943-277.943s-124.343-277.943-277.943-277.943c-153.6 0-277.943 124.343-277.943 277.943s124.343 277.943 277.943 277.943z" />
<glyph unicode="&#xe63b;" d="M91.429 475.428h365.714c10.971 0 18.286 7.314 18.286 18.286v365.714c0 10.971-7.314 18.286-18.286 18.286h-365.714c-10.971 0-18.286-7.314-18.286-18.286v-365.714c0-10.971 7.314-18.286 18.286-18.286zM109.714 841.143h329.143v-329.143h-329.143v329.143zM932.571 877.714h-365.714c-10.971 0-18.286-7.314-18.286-18.286v-365.714c0-10.971 7.314-18.286 18.286-18.286h365.714c10.971 0 18.286 7.314 18.286 18.286v365.714c0 10.971-7.314 18.286-18.286 18.286zM914.286 512h-329.143v329.143h329.143v-329.143zM91.429 0h365.714c10.971 0 18.286 7.314 18.286 18.286v365.714c0 10.971-7.314 18.286-18.286 18.286h-365.714c-10.971 0-18.286-7.314-18.286-18.286v-365.714c0-10.971 7.314-18.286 18.286-18.286zM109.714 365.714h329.143v-329.143h-329.143v329.143zM932.571 402.286h-365.714c-10.971 0-18.286-7.314-18.286-18.286v-365.714c0-10.971 7.314-18.286 18.286-18.286h365.714c10.971 0 18.286 7.314 18.286 18.286v365.714c0 10.971-7.314 18.286-18.286 18.286zM914.286 36.571h-329.143v329.143h329.143v-329.143z" />
<glyph unicode="&#xe63c;" d="M515.657 618.057c-98.743 0-179.2-80.457-179.2-179.2s80.457-179.2 179.2-179.2c98.743 0 179.2 80.457 179.2 179.2s-80.457 179.2-179.2 179.2zM515.657 296.228c-76.8 0-142.629 62.171-142.629 142.629s62.171 142.629 142.629 142.629c76.8 0 142.629-62.171 142.629-142.629s-65.829-142.629-142.629-142.629zM296.229 245.028l-102.4-102.4c-7.314-7.314-7.314-18.286 0-25.6 3.657-3.657 7.314-7.314 10.971-7.314s10.971 0 14.629 3.657l102.4 106.057c7.314 7.314 7.314 18.286 0 25.6s-18.286 7.314-25.6 0zM724.114 629.028c3.657 0 10.971 0 14.629 3.657l102.4 102.4c7.314 7.314 7.314 18.286 0 25.6s-18.286 7.314-25.6 0l-106.057-102.4c-7.314-7.314-7.314-18.286 0-25.6 3.657-3.657 7.314-3.657 14.629-3.657zM241.371 438.857c0 10.971-7.314 18.286-18.286 18.286h-146.286c-10.971 0-18.286-7.314-18.286-18.286s7.314-18.286 18.286-18.286h146.286c10.971 0 18.286 7.314 18.286 18.286zM954.514 457.143h-146.286c-10.971 0-18.286-7.314-18.286-18.286s7.314-18.286 18.286-18.286h146.286c10.971 0 18.286 7.314 18.286 18.286s-7.314 18.286-18.286 18.286zM219.429 760.686c-7.314 7.314-21.943 7.314-25.6 0s-7.314-18.286 0-25.6l102.4-102.4c3.657-3.657 7.314-3.657 14.629-3.657s10.971 0 14.629 3.657c3.657 7.314 3.657 18.286-3.657 25.6l-102.4 102.4zM735.086 245.028c-7.314 7.314-18.286 7.314-25.6 0s-7.314-18.286 0-25.6l102.4-102.4c3.657-3.657 7.314-3.657 14.629-3.657s10.971 0 14.629 3.657c7.314 7.314 7.314 18.286 0 25.6l-106.057 102.4zM515.657 713.143c10.971 0 18.286 7.314 18.286 18.286v146.286c0 10.971-7.314 18.286-18.286 18.286s-18.286-7.314-18.286-18.286v-146.286c0-10.971 7.314-18.286 18.286-18.286zM515.657 164.571c-10.971 0-18.286-7.314-18.286-18.286v-146.286c0-10.971 7.314-18.286 18.286-18.286s18.286 7.314 18.286 18.286v146.286c0 10.971-7.314 18.286-18.286 18.286z" />
<glyph unicode="&#xe63d;" d="M117.029 91.428h735.086c36.571 0 69.486 29.257 69.486 69.486v555.886c0 36.571-29.257 69.486-69.486 69.486h-735.086c-36.571 0-69.486-29.257-69.486-69.486v-559.543c3.657-36.571 32.914-65.829 69.486-65.829zM87.771 160.914v351.086h277.943v-384h-248.686c-14.629 0-29.257 14.629-29.257 32.914zM855.771 128h-453.486v384h475.429c3.657 0 7.314 0 7.314 3.657v-354.743c0-18.286-10.971-32.914-29.257-32.914zM117.029 749.714h735.086c18.286 0 32.914-14.629 32.914-32.914v-171.886c0 3.657-3.657 3.657-7.314 3.657h-789.943v168.229c0 18.286 14.629 32.914 29.257 32.914z" />
<glyph unicode="&#xe63e;" d="M771.657 709.486c-7.314 7.314-18.286 7.314-25.6 0l-241.371-241.371-245.029 241.371c-7.314 7.314-18.286 7.314-25.6 0s-7.314-18.286 0-25.6l241.371-245.029-241.371-241.371c-7.314-7.314-7.314-18.286 0-25.6 3.657-3.657 7.314-3.657 14.629-3.657s10.971 0 14.629 3.657l241.371 241.371 241.371-241.371c3.657-3.657 7.314-3.657 14.629-3.657s10.971 0 14.629 3.657c7.314 7.314 7.314 18.286 0 25.6l-245.029 241.371 241.371 241.371c7.314 7.314 7.314 21.943 0 29.257z" />
<glyph unicode="&#xe63f;" d="M241.371 541.257c0 10.971-7.314 18.286-18.286 18.286s-18.286-7.314-18.286-18.286l25.6-522.971c0-10.971 7.314-18.286 18.286-18.286h512c10.971 0 18.286 7.314 18.286 18.286l25.6 519.314c0 10.971-7.314 18.286-18.286 18.286s-18.286-7.314-18.286-18.286l-21.943-501.029h-479.086l-25.6 504.686zM932.571 713.143c0 10.971-7.314 18.286-18.286 18.286h-186.514c0 0 0 0 0 3.657l-69.486 131.657c-3.657 7.314-10.971 10.971-14.629 10.971h-270.629c-7.314 0-14.629-3.657-18.286-10.971l-65.829-135.314h-179.2c-10.971 0-18.286-7.314-18.286-18.286s7.314-18.286 18.286-18.286h804.571c10.971 0 18.286 7.314 18.286 18.286zM384 841.143h248.686l54.857-109.714h-358.4l54.857 109.714zM416.914 138.971c0 0 0 0 0 0 10.971 0 18.286 7.314 18.286 18.286l-7.314 380.343c0 10.971-7.314 18.286-18.286 18.286 0 0 0 0 0 0-10.971 0-18.286-7.314-18.286-18.286l7.314-380.343c0-10.971 10.971-18.286 18.286-18.286zM585.143 138.971c10.971 0 18.286 7.314 18.286 18.286l7.314 380.343c0 10.971-7.314 18.286-18.286 18.286s-18.286-7.314-18.286-18.286l-7.314-380.343c0-10.971 7.314-18.286 18.286-18.286 0 0 0 0 0 0z" />
<glyph unicode="&#xe640;" d="M504.686 819.2c-40.229 0-73.143-25.6-98.743-76.8l-270.629-515.657c-25.6-51.2-25.6-98.743-3.657-135.314s65.829-54.857 120.686-54.857h501.029c54.857 0 98.743 18.286 120.686 54.857s21.943 84.114-3.657 131.657l-266.971 519.314c-25.6 51.2-62.171 76.8-98.743 76.8zM841.143 113.371c-14.629-25.6-47.543-40.229-87.771-40.229h-501.029c-40.229 0-73.143 14.629-87.771 40.229s-14.629 58.514 7.314 98.743l266.971 519.314c18.286 36.571 43.886 58.514 65.829 58.514s47.543-21.943 65.829-58.514l266.971-519.314c18.286-40.229 21.943-73.143 3.657-98.743zM504.686 241.371c-36.571 0-65.829-29.257-65.829-65.829s29.257-65.829 65.829-65.829 65.829 29.257 65.829 65.829-32.914 65.829-65.829 65.829zM504.686 149.943c-14.629 0-29.257 10.971-29.257 29.257 0 14.629 10.971 29.257 29.257 29.257s29.257-10.971 29.257-29.257c-3.657-18.286-14.629-29.257-29.257-29.257zM504.686 654.628c-18.286 0-47.543-10.971-62.171-58.514-10.971-36.571-14.629-80.457-14.629-109.714 0-69.486 18.286-201.143 80.457-201.143s80.457 131.657 80.457 201.143c0 29.257-3.657 73.143-14.629 109.714-25.6 51.2-51.2 58.514-69.486 58.514zM530.286 369.371c-10.971-32.914-21.943-43.886-25.6-43.886-14.629 0-43.886 65.829-43.886 164.571 0 40.229 3.657 73.143 14.629 98.743 3.657 14.629 14.629 32.914 29.257 32.914 25.6 0 43.886-54.857 43.886-131.657-3.657-43.886-7.314-87.771-18.286-120.686z" />
</font>
</defs>
</svg>
